<svg width="150" height="50" viewBox="0 0 150 50" fill="none" xmlns="http://www.w3.org/2000/svg"><rect width="150" height="50" rx="8"></rect><g clip-path="url(#clip0_5409_12092)"><path d="M8.62165 9.41613V38.3583C8.62165 39.5847 9.61382 40.5834 10.8182 40.5834H42.1832C43.3876 40.5834 44.3797 39.5847 44.3797 38.3583V9.41613H8.62165ZM20.443 14.1456C20.443 13.0714 21.3041 12.1958 22.3738 12.1958H30.6279C31.6972 12.1958 32.5587 13.0714 32.5587 14.1456C32.5587 15.2195 31.6972 16.0951 30.6279 16.0951H22.3738C21.3041 16.0951 20.443 15.2195 20.443 14.1456Z" stroke="white" stroke-width="0.559702"></path><mask id="mask0_5409_12092" maskUnits="userSpaceOnUse" x="10" y="22" width="33" height="33" style="mask-type:alpha"><path d="M10.8184 38.3589C10.8184 29.5976 17.8398 22.4951 26.5011 22.4951C35.1624 22.4951 42.1838 29.5976 42.1838 38.3589C42.1838 47.1202 35.1624 54.2226 26.5011 54.2226C17.8398 54.2226 10.8184 47.1202 10.8184 38.3589Z" fill="#F1F1F1"></path></mask><g mask="url(#mask0_5409_12092)"><path d="M26.0215 31.3719L26.1017 31.2289H26.2656H42.0972V22.3552H12.9927V42.5502H19.7588L26.0215 31.3719Z" fill="white" stroke="#305C89" stroke-width="0.559702"></path><path d="M20.0268 42.3531L19.8113 42.3531L19.7036 42.1664L10.6602 26.4881V54.1552H25.4216L32.302 47.2002V42.3551L20.0268 42.3531Z" fill="white" stroke="#305C89" stroke-width="0.746269"></path><path d="M32.556 42.2521L32.5834 42.2989L32.5562 42.3459L25.5602 54.435H42.0984L42.376 43.0189L42.0984 31.6027H26.3306L32.556 42.2521Z" fill="white" stroke="#305C89" stroke-width="0.186567"></path><path d="M26.5005 31.1471C30.438 31.1471 33.6298 34.3761 33.6298 38.3588C33.6298 42.3418 30.438 45.5708 26.5005 45.5708C22.5629 45.5708 19.3711 42.3418 19.3711 38.3588C19.3711 34.3761 22.5629 31.1471 26.5005 31.1471Z" fill="#305C89"></path><path d="M26.5004 32.5893C29.6503 32.5893 32.2039 35.1723 32.2039 38.3586C32.2039 41.5449 29.6503 44.1279 26.5004 44.1279C23.3504 44.1279 20.7969 41.5449 20.7969 38.3586C20.7969 35.1723 23.3504 32.5893 26.5004 32.5893Z" fill="white"></path></g><path opacity="0.100006" d="M42.1832 40.6546H10.8179C9.45627 40.6546 8.3418 39.5273 8.3418 38.1496V38.3583C8.3418 39.7363 9.45627 40.8633 10.8179 40.8633H42.1832C43.5451 40.8633 44.6596 39.7363 44.6596 38.3583V38.1496C44.6596 39.5273 43.5451 40.6546 42.1832 40.6546ZM22.3735 12.4756H30.6276C31.5044 12.4756 32.2208 13.1686 32.2722 14.0413C32.2742 14.0059 32.2785 13.9723 32.2785 13.9369C32.2785 13.0143 31.5397 12.2669 30.6276 12.2669H22.3735C21.4617 12.2669 20.7226 13.0143 20.7226 13.9369C20.7226 13.9723 20.7249 14.0059 20.7291 14.0413C20.7805 13.1686 21.4966 12.4756 22.3735 12.4756Z" fill="#090909"></path><path opacity="0.0200043" d="M8.3418 24.7913H44.6596V25H8.3418V24.7913Z" fill="#090909"></path></g><path d="M51.7889 20H50.8571L52.9508 14.1818H53.965L56.0588 20H55.127L53.4821 15.2386H53.4366L51.7889 20ZM51.9451 17.7216H54.9679V18.4602H51.9451V17.7216ZM60.0169 15.6364L58.4345 20H57.5254L55.9402 15.6364H56.8521L57.9572 18.9943H58.0027L59.1049 15.6364H60.0169ZM61.96 20.0966C61.6835 20.0966 61.4335 20.0455 61.21 19.9432C60.9866 19.839 60.8095 19.6884 60.6788 19.4915C60.55 19.2945 60.4856 19.053 60.4856 18.767C60.4856 18.5208 60.533 18.3182 60.6277 18.1591C60.7224 18 60.8502 17.8741 61.0112 17.7812C61.1722 17.6884 61.3521 17.6184 61.551 17.571C61.7498 17.5237 61.9525 17.4877 62.1589 17.4631C62.4203 17.4328 62.6324 17.4081 62.7953 17.3892C62.9582 17.3684 63.0765 17.3352 63.1504 17.2898C63.2243 17.2443 63.2612 17.1705 63.2612 17.0682V17.0483C63.2612 16.8002 63.1911 16.608 63.051 16.4716C62.9127 16.3352 62.7063 16.267 62.4316 16.267C62.1457 16.267 61.9203 16.3305 61.7555 16.4574C61.5926 16.5824 61.4799 16.7216 61.4174 16.875L60.6191 16.6932C60.7138 16.428 60.8521 16.214 61.0339 16.0511C61.2176 15.8864 61.4288 15.767 61.6674 15.6932C61.9061 15.6174 62.157 15.5795 62.4203 15.5795C62.5945 15.5795 62.7792 15.6004 62.9743 15.642C63.1712 15.6818 63.3549 15.7557 63.5254 15.8636C63.6977 15.9716 63.8388 16.1259 63.9487 16.3267C64.0585 16.5256 64.1135 16.7841 64.1135 17.1023V20H63.2839V19.4034H63.2498C63.1949 19.5133 63.1125 19.6212 63.0027 19.7273C62.8928 19.8333 62.7517 19.9214 62.5794 19.9915C62.407 20.0616 62.2006 20.0966 61.96 20.0966ZM62.1447 19.4148C62.3796 19.4148 62.5803 19.3684 62.747 19.2756C62.9155 19.1828 63.0434 19.0616 63.1305 18.9119C63.2195 18.7604 63.264 18.5985 63.264 18.4261V17.8636C63.2337 17.8939 63.175 17.9223 63.0879 17.9489C63.0027 17.9735 62.9051 17.9953 62.7953 18.0142C62.6854 18.0312 62.5784 18.0473 62.4743 18.0625C62.3701 18.0758 62.283 18.0871 62.2129 18.0966C62.0481 18.1174 61.8975 18.1525 61.7612 18.2017C61.6267 18.2509 61.5188 18.322 61.4373 18.4148C61.3578 18.5057 61.318 18.6269 61.318 18.7784C61.318 18.9886 61.3957 19.1477 61.551 19.2557C61.7063 19.3617 61.9042 19.4148 62.1447 19.4148ZM65.2449 20V15.6364H66.0943V20H65.2449ZM65.6738 14.9631C65.5261 14.9631 65.3992 14.9138 65.2931 14.8153C65.189 14.715 65.1369 14.5956 65.1369 14.4574C65.1369 14.3172 65.189 14.1979 65.2931 14.0994C65.3992 13.9991 65.5261 13.9489 65.6738 13.9489C65.8216 13.9489 65.9475 13.9991 66.0517 14.0994C66.1577 14.1979 66.2108 14.3172 66.2108 14.4574C66.2108 14.5956 66.1577 14.715 66.0517 14.8153C65.9475 14.9138 65.8216 14.9631 65.6738 14.9631ZM68.0865 14.1818V20H67.237V14.1818H68.0865ZM70.4991 20.0966C70.2226 20.0966 69.9726 20.0455 69.7491 19.9432C69.5256 19.839 69.3485 19.6884 69.2179 19.4915C69.0891 19.2945 69.0247 19.053 69.0247 18.767C69.0247 18.5208 69.072 18.3182 69.1667 18.1591C69.2614 18 69.3893 17.8741 69.5502 17.7812C69.7112 17.6884 69.8912 17.6184 70.09 17.571C70.2889 17.5237 70.4915 17.4877 70.698 17.4631C70.9593 17.4328 71.1715 17.4081 71.3343 17.3892C71.4972 17.3684 71.6156 17.3352 71.6895 17.2898C71.7633 17.2443 71.8002 17.1705 71.8002 17.0682V17.0483C71.8002 16.8002 71.7302 16.608 71.59 16.4716C71.4518 16.3352 71.2453 16.267 70.9707 16.267C70.6847 16.267 70.4593 16.3305 70.2946 16.4574C70.1317 16.5824 70.019 16.7216 69.9565 16.875L69.1582 16.6932C69.2529 16.428 69.3912 16.214 69.573 16.0511C69.7567 15.8864 69.9679 15.767 70.2065 15.6932C70.4451 15.6174 70.6961 15.5795 70.9593 15.5795C71.1336 15.5795 71.3182 15.6004 71.5133 15.642C71.7103 15.6818 71.894 15.7557 72.0645 15.8636C72.2368 15.9716 72.3779 16.1259 72.4877 16.3267C72.5976 16.5256 72.6525 16.7841 72.6525 17.1023V20H71.823V19.4034H71.7889C71.734 19.5133 71.6516 19.6212 71.5417 19.7273C71.4319 19.8333 71.2908 19.9214 71.1184 19.9915C70.9461 20.0616 70.7396 20.0966 70.4991 20.0966ZM70.6838 19.4148C70.9186 19.4148 71.1194 19.3684 71.286 19.2756C71.4546 19.1828 71.5824 19.0616 71.6696 18.9119C71.7586 18.7604 71.8031 18.5985 71.8031 18.4261V17.8636C71.7728 17.8939 71.7141 17.9223 71.627 17.9489C71.5417 17.9735 71.4442 17.9953 71.3343 18.0142C71.2245 18.0312 71.1175 18.0473 71.0133 18.0625C70.9092 18.0758 70.822 18.0871 70.752 18.0966C70.5872 18.1174 70.4366 18.1525 70.3002 18.2017C70.1658 18.2509 70.0578 18.322 69.9764 18.4148C69.8968 18.5057 69.8571 18.6269 69.8571 18.7784C69.8571 18.9886 69.9347 19.1477 70.09 19.2557C70.2453 19.3617 70.4432 19.4148 70.6838 19.4148ZM73.8521 20V14.1818H74.7015V16.3438H74.7527C74.8019 16.2528 74.8729 16.1477 74.9657 16.0284C75.0585 15.9091 75.1873 15.8049 75.3521 15.7159C75.5169 15.625 75.7347 15.5795 76.0055 15.5795C76.3578 15.5795 76.6722 15.6686 76.9487 15.8466C77.2252 16.0246 77.4421 16.2812 77.5993 16.6165C77.7583 16.9517 77.8379 17.3551 77.8379 17.8267C77.8379 18.2983 77.7593 18.7027 77.6021 19.0398C77.4449 19.375 77.229 19.6335 76.9544 19.8153C76.6797 19.9953 76.3663 20.0852 76.014 20.0852C75.7489 20.0852 75.532 20.0407 75.3635 19.9517C75.1968 19.8627 75.0661 19.7585 74.9714 19.6392C74.8767 19.5199 74.8038 19.4138 74.7527 19.321H74.6816V20H73.8521ZM74.6845 17.8182C74.6845 18.125 74.729 18.3939 74.818 18.625C74.907 18.8561 75.0358 19.0369 75.2044 19.1676C75.3729 19.2964 75.5794 19.3608 75.8237 19.3608C76.0775 19.3608 76.2896 19.2936 76.46 19.1591C76.6305 19.0227 76.7593 18.8381 76.8464 18.6051C76.9354 18.3722 76.9799 18.1098 76.9799 17.8182C76.9799 17.5303 76.9364 17.2718 76.8493 17.0426C76.764 16.8134 76.6352 16.6326 76.4629 16.5C76.2924 16.3674 76.0794 16.3011 75.8237 16.3011C75.5775 16.3011 75.3691 16.3646 75.1987 16.4915C75.0301 16.6184 74.9023 16.7955 74.8152 17.0227C74.728 17.25 74.6845 17.5152 74.6845 17.8182ZM79.6412 14.1818V20H78.7917V14.1818H79.6412ZM82.6646 20.0881C82.2347 20.0881 81.8644 19.9962 81.5538 19.8125C81.2451 19.6269 81.0065 19.3665 80.8379 19.0312C80.6712 18.6941 80.5879 18.2992 80.5879 17.8466C80.5879 17.3996 80.6712 17.0057 80.8379 16.6648C81.0065 16.3239 81.2413 16.0578 81.5424 15.8665C81.8455 15.6752 82.1996 15.5795 82.6049 15.5795C82.8511 15.5795 83.0898 15.6203 83.3208 15.7017C83.5519 15.7831 83.7593 15.911 83.943 16.0852C84.1267 16.2595 84.2716 16.4858 84.3777 16.7642C84.4837 17.0407 84.5368 17.3769 84.5368 17.7727V18.0739H81.068V17.4375H83.7044C83.7044 17.214 83.6589 17.0161 83.568 16.8438C83.4771 16.6695 83.3493 16.5322 83.1845 16.4318C83.0216 16.3314 82.8303 16.2812 82.6106 16.2812C82.372 16.2812 82.1636 16.34 81.9856 16.4574C81.8095 16.5729 81.6731 16.7244 81.5765 16.9119C81.4818 17.0975 81.4345 17.2992 81.4345 17.517V18.0142C81.4345 18.3059 81.4856 18.554 81.5879 18.7585C81.6921 18.9631 81.8369 19.1193 82.0225 19.2273C82.2082 19.3333 82.425 19.3864 82.6731 19.3864C82.8341 19.3864 82.9809 19.3636 83.1135 19.3182C83.246 19.2708 83.3606 19.2008 83.4572 19.108C83.5538 19.0152 83.6277 18.9006 83.6788 18.7642L84.4828 18.9091C84.4184 19.1458 84.3029 19.3532 84.1362 19.5312C83.9714 19.7074 83.764 19.8447 83.514 19.9432C83.2659 20.0398 82.9828 20.0881 82.6646 20.0881ZM87.5964 20V15.6364H88.4458V20H87.5964ZM88.0254 14.9631C87.8777 14.9631 87.7508 14.9138 87.6447 14.8153C87.5405 14.715 87.4885 14.5956 87.4885 14.4574C87.4885 14.3172 87.5405 14.1979 87.6447 14.0994C87.7508 13.9991 87.8777 13.9489 88.0254 13.9489C88.1731 13.9489 88.2991 13.9991 88.4032 14.0994C88.5093 14.1979 88.5623 14.3172 88.5623 14.4574C88.5623 14.5956 88.5093 14.715 88.4032 14.8153C88.2991 14.9138 88.1731 14.9631 88.0254 14.9631ZM90.438 17.4091V20H89.5886V15.6364H90.4039V16.3466H90.4579C90.5583 16.1155 90.7155 15.9299 90.9295 15.7898C91.1454 15.6496 91.4172 15.5795 91.7449 15.5795C92.0422 15.5795 92.3026 15.642 92.5261 15.767C92.7496 15.8902 92.9229 16.0739 93.046 16.3182C93.1691 16.5625 93.2306 16.8646 93.2306 17.2244V20H92.3812V17.3267C92.3812 17.0104 92.2988 16.7633 92.1341 16.5852C91.9693 16.4053 91.743 16.3153 91.4551 16.3153C91.2581 16.3153 91.0829 16.358 90.9295 16.4432C90.778 16.5284 90.6577 16.6534 90.5687 16.8182C90.4816 16.9811 90.438 17.178 90.438 17.4091ZM98.524 15.6364V16.3182H96.1404V15.6364H98.524ZM96.7797 14.5909H97.6291V18.7188C97.6291 18.8835 97.6537 19.0076 97.7029 19.0909C97.7522 19.1723 97.8156 19.2282 97.8933 19.2585C97.9728 19.2869 98.059 19.3011 98.1518 19.3011C98.22 19.3011 98.2797 19.2964 98.3308 19.2869C98.3819 19.2775 98.4217 19.2699 98.4501 19.2642L98.6035 19.9659C98.5543 19.9848 98.4842 20.0038 98.3933 20.0227C98.3024 20.0436 98.1887 20.0549 98.0524 20.0568C97.8289 20.0606 97.6206 20.0208 97.4274 19.9375C97.2342 19.8542 97.0779 19.7254 96.9586 19.5511C96.8393 19.3769 96.7797 19.1581 96.7797 18.8949V14.5909ZM100.407 17.4091V20H99.5574V14.1818H100.395V16.3466H100.449C100.552 16.1117 100.708 15.9252 100.918 15.7869C101.128 15.6487 101.403 15.5795 101.742 15.5795C102.041 15.5795 102.303 15.6411 102.526 15.7642C102.751 15.8873 102.926 16.071 103.049 16.3153C103.174 16.5578 103.236 16.8608 103.236 17.2244V20H102.387V17.3267C102.387 17.0066 102.305 16.7585 102.14 16.5824C101.975 16.4044 101.746 16.3153 101.452 16.3153C101.251 16.3153 101.072 16.358 100.912 16.4432C100.755 16.5284 100.631 16.6534 100.54 16.8182C100.451 16.9811 100.407 17.178 100.407 17.4091ZM106.251 20.0881C105.821 20.0881 105.45 19.9962 105.14 19.8125C104.831 19.6269 104.592 19.3665 104.424 19.0312C104.257 18.6941 104.174 18.2992 104.174 17.8466C104.174 17.3996 104.257 17.0057 104.424 16.6648C104.592 16.3239 104.827 16.0578 105.128 15.8665C105.431 15.6752 105.786 15.5795 106.191 15.5795C106.437 15.5795 106.676 15.6203 106.907 15.7017C107.138 15.7831 107.345 15.911 107.529 16.0852C107.713 16.2595 107.858 16.4858 107.964 16.7642C108.07 17.0407 108.123 17.3769 108.123 17.7727V18.0739H104.654V17.4375H107.29C107.29 17.214 107.245 17.0161 107.154 16.8438C107.063 16.6695 106.935 16.5322 106.77 16.4318C106.608 16.3314 106.416 16.2812 106.197 16.2812C105.958 16.2812 105.75 16.34 105.572 16.4574C105.395 16.5729 105.259 16.7244 105.162 16.9119C105.068 17.0975 105.02 17.2992 105.02 17.517V18.0142C105.02 18.3059 105.072 18.554 105.174 18.7585C105.278 18.9631 105.423 19.1193 105.608 19.2273C105.794 19.3333 106.011 19.3864 106.259 19.3864C106.42 19.3864 106.567 19.3636 106.699 19.3182C106.832 19.2708 106.947 19.2008 107.043 19.108C107.14 19.0152 107.214 18.9006 107.265 18.7642L108.069 18.9091C108.004 19.1458 107.889 19.3532 107.722 19.5312C107.557 19.7074 107.35 19.8447 107.1 19.9432C106.852 20.0398 106.569 20.0881 106.251 20.0881Z" fill="white"></path><path d="M57.4977 31.0923H56.3897C56.3471 30.8556 56.2678 30.6473 56.1518 30.4673C56.0358 30.2874 55.8938 30.1347 55.7257 30.0092C55.5576 29.8838 55.3694 29.7891 55.161 29.7251C54.9551 29.6612 54.7361 29.6293 54.5041 29.6293C54.085 29.6293 53.7098 29.7346 53.3784 29.9453C53.0493 30.156 52.7889 30.465 52.5971 30.8722C52.4077 31.2794 52.313 31.7765 52.313 32.3636C52.313 32.9555 52.4077 33.455 52.5971 33.8622C52.7889 34.2694 53.0505 34.5772 53.3819 34.7855C53.7134 34.9938 54.0862 35.098 54.5005 35.098C54.7302 35.098 54.948 35.0672 55.1539 35.0057C55.3623 34.9418 55.5505 34.8482 55.7186 34.7251C55.8867 34.602 56.0287 34.4517 56.1447 34.2741C56.2631 34.0942 56.3448 33.8883 56.3897 33.6562L57.4977 33.6598C57.4385 34.0173 57.3237 34.3464 57.1532 34.647C56.9851 34.9453 56.7685 35.2034 56.5034 35.4212C56.2406 35.6366 55.9399 35.8035 55.6014 35.9219C55.2628 36.0402 54.8935 36.0994 54.4934 36.0994C53.8637 36.0994 53.3026 35.9503 52.8102 35.652C52.3178 35.3513 51.9295 34.9216 51.6454 34.3629C51.3637 33.8042 51.2228 33.1378 51.2228 32.3636C51.2228 31.5871 51.3649 30.9207 51.649 30.3643C51.9331 29.8056 52.3213 29.3771 52.8137 29.0788C53.3062 28.7782 53.8661 28.6278 54.4934 28.6278C54.8793 28.6278 55.2392 28.6835 55.573 28.7947C55.9092 28.9036 56.211 29.0646 56.4785 29.2777C56.746 29.4884 56.9674 29.7464 57.1426 30.0518C57.3178 30.3549 57.4361 30.7017 57.4977 31.0923ZM59.7873 32.7614V36H58.7255V28.7273H59.7731V31.4332H59.8406C59.9684 31.1397 60.1637 30.9065 60.4265 30.7337C60.6893 30.5608 61.0326 30.4744 61.4563 30.4744C61.8304 30.4744 62.1571 30.5514 62.4364 30.7053C62.7182 30.8591 62.936 31.0888 63.0898 31.3942C63.2461 31.6972 63.3242 32.076 63.3242 32.5305V36H62.2624V32.6584C62.2624 32.2583 62.1594 31.9482 61.9535 31.728C61.7475 31.5054 61.4611 31.3942 61.0941 31.3942C60.8432 31.3942 60.6183 31.4474 60.4194 31.554C60.2229 31.6605 60.0678 31.8168 59.9542 32.0227C59.8429 32.2263 59.7873 32.4725 59.7873 32.7614ZM64.7411 36V30.5455H65.7674V31.4119H65.8242C65.9237 31.1184 66.0988 30.8875 66.3498 30.7195C66.6031 30.549 66.8896 30.4638 67.2092 30.4638C67.2754 30.4638 67.3536 30.4661 67.4435 30.4709C67.5359 30.4756 67.6081 30.4815 67.6602 30.4886V31.5043C67.6175 31.4924 67.5418 31.4794 67.4329 31.4652C67.324 31.4486 67.2151 31.4403 67.1062 31.4403C66.8552 31.4403 66.6315 31.4936 66.435 31.6001C66.2409 31.7043 66.087 31.8499 65.9734 32.0369C65.8597 32.2216 65.8029 32.4323 65.8029 32.669V36H64.7411ZM70.6813 36.1101C70.1699 36.1101 69.7237 35.9929 69.3425 35.7585C68.9614 35.5241 68.6654 35.1963 68.4547 34.7749C68.244 34.3535 68.1387 33.861 68.1387 33.2976C68.1387 32.7318 68.244 32.237 68.4547 31.8132C68.6654 31.3894 68.9614 31.0604 69.3425 30.826C69.7237 30.5916 70.1699 30.4744 70.6813 30.4744C71.1926 30.4744 71.6389 30.5916 72.0201 30.826C72.4012 31.0604 72.6971 31.3894 72.9078 31.8132C73.1185 32.237 73.2239 32.7318 73.2239 33.2976C73.2239 33.861 73.1185 34.3535 72.9078 34.7749C72.6971 35.1963 72.4012 35.5241 72.0201 35.7585C71.6389 35.9929 71.1926 36.1101 70.6813 36.1101ZM70.6848 35.2188C71.0163 35.2188 71.2909 35.1312 71.5087 34.956C71.7265 34.7808 71.8875 34.5476 71.9917 34.2564C72.0982 33.9652 72.1515 33.6444 72.1515 33.294C72.1515 32.946 72.0982 32.6264 71.9917 32.3352C71.8875 32.0417 71.7265 31.8061 71.5087 31.6286C71.2909 31.451 71.0163 31.3622 70.6848 31.3622C70.351 31.3622 70.074 31.451 69.8539 31.6286C69.6361 31.8061 69.4739 32.0417 69.3674 32.3352C69.2632 32.6264 69.2111 32.946 69.2111 33.294C69.2111 33.6444 69.2632 33.9652 69.3674 34.2564C69.4739 34.5476 69.6361 34.7808 69.8539 34.956C70.074 35.1312 70.351 35.2188 70.6848 35.2188ZM74.4091 36V30.5455H75.4283V31.4332H75.4957C75.6094 31.1326 75.7952 30.8982 76.0533 30.7301C76.3113 30.5597 76.6203 30.4744 76.9801 30.4744C77.3447 30.4744 77.6501 30.5597 77.8963 30.7301C78.1449 30.9006 78.3284 31.1349 78.4467 31.4332H78.5036C78.6338 31.142 78.8409 30.91 79.125 30.7372C79.4091 30.562 79.7476 30.4744 80.1406 30.4744C80.6354 30.4744 81.0391 30.6295 81.3516 30.9396C81.6664 31.2498 81.8239 31.7173 81.8239 32.3423V36H80.7621V32.4418C80.7621 32.0724 80.6615 31.8049 80.4602 31.6392C80.259 31.4735 80.0187 31.3906 79.7393 31.3906C79.3937 31.3906 79.125 31.4972 78.9332 31.7102C78.7415 31.9209 78.6456 32.192 78.6456 32.5234V36H77.5874V32.3743C77.5874 32.0784 77.495 31.8404 77.3104 31.6605C77.1257 31.4806 76.8854 31.3906 76.5895 31.3906C76.3883 31.3906 76.2024 31.4439 76.032 31.5504C75.8639 31.6546 75.7277 31.8002 75.6236 31.9872C75.5218 32.1742 75.4709 32.3909 75.4709 32.6371V36H74.4091ZM85.5978 36.1101C85.0604 36.1101 84.5976 35.9953 84.2093 35.7656C83.8234 35.5336 83.5252 35.2081 83.3145 34.7891C83.1061 34.3677 83.002 33.8741 83.002 33.3082C83.002 32.7495 83.1061 32.2571 83.3145 31.831C83.5252 31.4048 83.8187 31.0722 84.1951 30.8331C84.5739 30.594 85.0166 30.4744 85.5233 30.4744C85.831 30.4744 86.1293 30.5253 86.4181 30.6271C86.707 30.7289 86.9662 30.8887 87.1958 31.1065C87.4255 31.3243 87.6066 31.6072 87.7392 31.9553C87.8717 32.3009 87.938 32.7211 87.938 33.2159V33.5923H83.6021V32.7969H86.8975C86.8975 32.5175 86.8407 32.2701 86.7271 32.0547C86.6135 31.8369 86.4537 31.6652 86.2477 31.5398C86.0441 31.4143 85.805 31.3516 85.5304 31.3516C85.2321 31.3516 84.9717 31.425 84.7491 31.5717C84.5289 31.7161 84.3585 31.9055 84.2377 32.1399C84.1194 32.3719 84.0602 32.6241 84.0602 32.8963V33.5178C84.0602 33.8823 84.1241 34.1925 84.252 34.4482C84.3822 34.7038 84.5633 34.8991 84.7953 35.0341C85.0273 35.1667 85.2984 35.233 85.6085 35.233C85.8097 35.233 85.9932 35.2045 86.1589 35.1477C86.3246 35.0885 86.4679 35.0009 86.5886 34.8849C86.7093 34.7689 86.8017 34.6257 86.8656 34.4553L87.8706 34.6364C87.7901 34.9323 87.6457 35.1915 87.4373 35.4141C87.2314 35.6342 86.9721 35.8059 86.6596 35.929C86.3495 36.0497 85.9956 36.1101 85.5978 36.1101ZM93.2718 36L91.2548 28.7273H92.4089L93.8258 34.3594H93.8933L95.367 28.7273H96.5105L97.9842 34.3629H98.0517L99.465 28.7273H100.623L98.6021 36H97.4977L95.9672 30.5526H95.9103L94.3798 36H93.2718ZM103.352 36.1101C102.814 36.1101 102.352 35.9953 101.963 35.7656C101.577 35.5336 101.279 35.2081 101.068 34.7891C100.86 34.3677 100.756 33.8741 100.756 33.3082C100.756 32.7495 100.86 32.2571 101.068 31.831C101.279 31.4048 101.573 31.0722 101.949 30.8331C102.328 30.594 102.771 30.4744 103.277 30.4744C103.585 30.4744 103.883 30.5253 104.172 30.6271C104.461 30.7289 104.72 30.8887 104.95 31.1065C105.179 31.3243 105.36 31.6072 105.493 31.9553C105.626 32.3009 105.692 32.7211 105.692 33.2159V33.5923H101.356V32.7969H104.651C104.651 32.5175 104.595 32.2701 104.481 32.0547C104.367 31.8369 104.208 31.6652 104.002 31.5398C103.798 31.4143 103.559 31.3516 103.284 31.3516C102.986 31.3516 102.726 31.425 102.503 31.5717C102.283 31.7161 102.112 31.9055 101.992 32.1399C101.873 32.3719 101.814 32.6241 101.814 32.8963V33.5178C101.814 33.8823 101.878 34.1925 102.006 34.4482C102.136 34.7038 102.317 34.8991 102.549 35.0341C102.781 35.1667 103.052 35.233 103.362 35.233C103.564 35.233 103.747 35.2045 103.913 35.1477C104.079 35.0885 104.222 35.0009 104.343 34.8849C104.463 34.7689 104.556 34.6257 104.619 34.4553L105.624 34.6364C105.544 34.9323 105.4 35.1915 105.191 35.4141C104.985 35.6342 104.726 35.8059 104.414 35.929C104.103 36.0497 103.749 36.1101 103.352 36.1101ZM106.955 36V28.7273H108.017V31.4297H108.081C108.143 31.3161 108.231 31.1847 108.347 31.0355C108.463 30.8864 108.624 30.7562 108.83 30.6449C109.036 30.5312 109.308 30.4744 109.647 30.4744C110.087 30.4744 110.48 30.5857 110.826 30.8082C111.172 31.0308 111.443 31.3516 111.639 31.7706C111.838 32.1896 111.938 32.6939 111.938 33.2834C111.938 33.8729 111.839 34.3783 111.643 34.7997C111.446 35.2187 111.176 35.5419 110.833 35.7692C110.49 35.9941 110.098 36.1065 109.658 36.1065C109.326 36.1065 109.055 36.0509 108.844 35.9396C108.636 35.8284 108.473 35.6982 108.354 35.549C108.236 35.3999 108.145 35.2673 108.081 35.1513H107.992V36H106.955ZM107.996 33.2727C107.996 33.6562 108.051 33.9924 108.163 34.2812C108.274 34.5701 108.435 34.7962 108.646 34.9595C108.856 35.1205 109.114 35.201 109.42 35.201C109.737 35.201 110.002 35.117 110.215 34.9489C110.428 34.7784 110.589 34.5476 110.698 34.2564C110.809 33.9652 110.865 33.6373 110.865 33.2727C110.865 32.9129 110.811 32.5897 110.702 32.3033C110.595 32.0168 110.434 31.7907 110.219 31.625C110.006 31.4593 109.739 31.3764 109.42 31.3764C109.112 31.3764 108.852 31.4557 108.638 31.6143C108.428 31.773 108.268 31.9943 108.159 32.2784C108.05 32.5625 107.996 32.8939 107.996 33.2727ZM119.828 30.6378C119.79 30.3016 119.634 30.0412 119.359 29.8565C119.085 29.6695 118.739 29.576 118.322 29.576C118.024 29.576 117.766 29.6233 117.548 29.718C117.33 29.8104 117.161 29.9382 117.04 30.1016C116.922 30.2625 116.863 30.446 116.863 30.652C116.863 30.8248 116.903 30.974 116.984 31.0994C117.067 31.2249 117.174 31.3303 117.307 31.4155C117.442 31.4983 117.586 31.5682 117.74 31.625C117.894 31.6795 118.042 31.7244 118.184 31.7599L118.894 31.9446C119.126 32.0014 119.364 32.0784 119.608 32.1754C119.852 32.2725 120.078 32.4003 120.286 32.5589C120.495 32.7176 120.663 32.9141 120.79 33.1484C120.921 33.3828 120.986 33.6634 120.986 33.9901C120.986 34.402 120.879 34.7678 120.666 35.0874C120.455 35.407 120.149 35.6591 119.746 35.8438C119.346 36.0284 118.862 36.1207 118.294 36.1207C117.75 36.1207 117.278 36.0343 116.881 35.8615C116.483 35.6887 116.172 35.4437 115.947 35.1264C115.722 34.8068 115.598 34.428 115.574 33.9901H116.675C116.696 34.2528 116.781 34.4718 116.93 34.647C117.082 34.8198 117.275 34.9489 117.509 35.0341C117.746 35.117 118.005 35.1584 118.287 35.1584C118.597 35.1584 118.873 35.1098 119.114 35.0128C119.358 34.9134 119.55 34.776 119.69 34.6009C119.829 34.4233 119.899 34.2161 119.899 33.9794C119.899 33.764 119.838 33.5876 119.714 33.4503C119.594 33.313 119.429 33.1993 119.221 33.1094C119.015 33.0194 118.782 32.9401 118.521 32.8714L117.662 32.6371C117.08 32.4785 116.618 32.2453 116.277 31.9375C115.938 31.6297 115.769 31.2225 115.769 30.7159C115.769 30.2969 115.883 29.9311 116.11 29.6186C116.337 29.3061 116.645 29.0634 117.033 28.8906C117.422 28.7154 117.86 28.6278 118.347 28.6278C118.84 28.6278 119.274 28.7143 119.651 28.8871C120.029 29.0599 120.328 29.2978 120.545 29.6009C120.763 29.9015 120.877 30.2472 120.886 30.6378H119.828ZM124.758 30.5455V31.3977H121.779V30.5455H124.758ZM122.578 29.2386H123.639V34.3984C123.639 34.6044 123.67 34.7595 123.732 34.8636C123.793 34.9654 123.873 35.0353 123.97 35.0732C124.069 35.1087 124.177 35.1264 124.293 35.1264C124.378 35.1264 124.453 35.1205 124.517 35.1087C124.58 35.0968 124.63 35.0874 124.666 35.0803L124.857 35.9574C124.796 35.9811 124.708 36.0047 124.595 36.0284C124.481 36.0545 124.339 36.0687 124.169 36.071C123.889 36.0758 123.629 36.026 123.387 35.9219C123.146 35.8177 122.95 35.6567 122.801 35.4389C122.652 35.2211 122.578 34.9477 122.578 34.6186V29.2386ZM128.172 36.1101C127.66 36.1101 127.214 35.9929 126.833 35.7585C126.452 35.5241 126.156 35.1963 125.945 34.7749C125.734 34.3535 125.629 33.861 125.629 33.2976C125.629 32.7318 125.734 32.237 125.945 31.8132C126.156 31.3894 126.452 31.0604 126.833 30.826C127.214 30.5916 127.66 30.4744 128.172 30.4744C128.683 30.4744 129.129 30.5916 129.51 30.826C129.891 31.0604 130.187 31.3894 130.398 31.8132C130.609 32.237 130.714 32.7318 130.714 33.2976C130.714 33.861 130.609 34.3535 130.398 34.7749C130.187 35.1963 129.891 35.5241 129.51 35.7585C129.129 35.9929 128.683 36.1101 128.172 36.1101ZM128.175 35.2188C128.507 35.2188 128.781 35.1312 128.999 34.956C129.217 34.7808 129.378 34.5476 129.482 34.2564C129.588 33.9652 129.642 33.6444 129.642 33.294C129.642 32.946 129.588 32.6264 129.482 32.3352C129.378 32.0417 129.217 31.8061 128.999 31.6286C128.781 31.451 128.507 31.3622 128.175 31.3622C127.841 31.3622 127.564 31.451 127.344 31.6286C127.126 31.8061 126.964 32.0417 126.858 32.3352C126.753 32.6264 126.701 32.946 126.701 33.294C126.701 33.6444 126.753 33.9652 126.858 34.2564C126.964 34.5476 127.126 34.7808 127.344 34.956C127.564 35.1312 127.841 35.2188 128.175 35.2188ZM131.899 36V30.5455H132.926V31.4119H132.982C133.082 31.1184 133.257 30.8875 133.508 30.7195C133.761 30.549 134.048 30.4638 134.367 30.4638C134.434 30.4638 134.512 30.4661 134.602 30.4709C134.694 30.4756 134.766 30.4815 134.818 30.4886V31.5043C134.776 31.4924 134.7 31.4794 134.591 31.4652C134.482 31.4486 134.373 31.4403 134.264 31.4403C134.013 31.4403 133.79 31.4936 133.593 31.6001C133.399 31.7043 133.245 31.8499 133.132 32.0369C133.018 32.2216 132.961 32.4323 132.961 32.669V36H131.899ZM137.893 36.1101C137.355 36.1101 136.893 35.9953 136.504 35.7656C136.118 35.5336 135.82 35.2081 135.609 34.7891C135.401 34.3677 135.297 33.8741 135.297 33.3082C135.297 32.7495 135.401 32.2571 135.609 31.831C135.82 31.4048 136.114 31.0722 136.49 30.8331C136.869 30.594 137.312 30.4744 137.818 30.4744C138.126 30.4744 138.424 30.5253 138.713 30.6271C139.002 30.7289 139.261 30.8887 139.491 31.1065C139.72 31.3243 139.902 31.6072 140.034 31.9553C140.167 32.3009 140.233 32.7211 140.233 33.2159V33.5923H135.897V32.7969H139.192C139.192 32.5175 139.136 32.2701 139.022 32.0547C138.908 31.8369 138.749 31.6652 138.543 31.5398C138.339 31.4143 138.1 31.3516 137.825 31.3516C137.527 31.3516 137.267 31.425 137.044 31.5717C136.824 31.7161 136.653 31.9055 136.533 32.1399C136.414 32.3719 136.355 32.6241 136.355 32.8963V33.5178C136.355 33.8823 136.419 34.1925 136.547 34.4482C136.677 34.7038 136.858 34.8991 137.09 35.0341C137.322 35.1667 137.593 35.233 137.903 35.233C138.105 35.233 138.288 35.2045 138.454 35.1477C138.62 35.0885 138.763 35.0009 138.884 34.8849C139.004 34.7689 139.097 34.6257 139.161 34.4553L140.165 34.6364C140.085 34.9323 139.941 35.1915 139.732 35.4141C139.526 35.6342 139.267 35.8059 138.955 35.929C138.644 36.0497 138.29 36.1101 137.893 36.1101Z" fill="white"></path><defs><clipPath id="clip0_5409_12092"><rect width="36.3178" height="31.7273" fill="white" transform="translate(8.3418 9.13623)"></rect></clipPath></defs></svg>